<svg width="48" height="48" viewBox="0 0 48 48" fill="none" xmlns="http://www.w3.org/2000/svg">
<circle cx="24" cy="24" r="24" fill="#855DCD"/>
<path fill-rule="evenodd" clip-rule="evenodd" d="M19.4143 36.872H10.2976V35.8755C10.2976 35.4168 10.6694 35.045 11.128 35.045H11.2941V34.0485C11.2941 33.5898 11.6659 33.218 12.1246 33.218V18.436H11.2111L10.1315 14.782H14.9481V11.128H33.0519V14.782H37.8685L36.7889 18.436H35.8754V33.218C36.3341 33.218 36.7059 33.5898 36.7059 34.0485V35.045H36.872C37.3306 35.045 37.7024 35.4168 37.7024 35.8755V36.872H28.5959V35.8755C28.5959 35.4168 28.9678 35.045 29.4264 35.045H29.5925V34.0485C29.5925 33.5993 29.949 33.2335 30.3945 33.2185V25.0796C30.1007 21.8205 27.3356 19.2664 24 19.2664C20.6644 19.2664 17.8993 21.8205 17.6055 25.0796V33.2182C18.0557 33.2279 18.4177 33.5959 18.4177 34.0485V34.5467V35.045H18.5838C19.0425 35.045 19.4143 35.4168 19.4143 35.8755V36.872Z" fill="white"/>
</svg>
