<svg width="48" height="48" viewBox="0 0 48 48" fill="none" xmlns="http://www.w3.org/2000/svg">
<path d="M23.5475 8.33027L14.7453 22.7617C14.6763 22.8749 14.5159 22.8876 14.4302 22.786C13.6553 21.8692 10.7683 17.9688 14.3406 14.4139C17.6004 11.1701 21.7523 8.85729 23.2909 8.05768C23.4655 7.96694 23.6495 8.16258 23.5472 8.3299L23.5475 8.33027Z" fill="#0080BC"/>
<path d="M23.0652 39.7521C23.2409 39.8748 23.4572 39.6658 23.3396 39.4872C21.3734 36.5076 14.8379 26.5933 13.9352 25.1051C13.0449 23.6373 11.2932 21.1974 11.1473 19.1104C11.1328 18.9021 10.8435 18.8596 10.7709 19.0556C10.6537 19.3717 10.5288 19.7489 10.4123 20.1797C8.94301 25.6187 11.0769 31.3906 15.7116 34.6231L23.0652 39.7521Z" fill="#0080BC"/>
<path d="M24.2712 39.4955L33.0735 25.064C33.1424 24.9508 33.3029 24.9381 33.3885 25.0397C34.1635 25.9566 37.0505 29.857 33.4782 33.4118C30.2184 36.6556 26.0665 38.9684 24.5279 39.768C24.3533 39.8588 24.1692 39.6635 24.2716 39.4958L24.2712 39.4955Z" fill="#0080BC"/>
<path d="M24.7688 8.07191C24.5931 7.94923 24.3768 8.1583 24.4944 8.33687C26.4606 11.3164 32.9961 21.2308 33.8988 22.7189C34.7891 24.1868 36.5408 26.6262 36.6867 28.7136C36.7012 28.922 36.9905 28.9644 37.0631 28.7684C37.1804 28.4523 37.3052 28.0752 37.4217 27.6443C38.891 22.2053 36.7571 16.4335 32.1225 13.2009L24.7688 8.07191Z" fill="#0080BC"/>
</svg>
