<svg width="48" height="45" viewBox="0 0 48 45" fill="none" xmlns="http://www.w3.org/2000/svg">
<g clip-path="url(#clip0_7891_26282)">
<path d="M48.0005 22.4C48.0005 22.6042 48.0005 22.8151 48.0005 23.0193C47.6445 35.0889 37.0042 44.8 23.9708 44.8C15.75 44.8 7.67415 40.7285 3.24398 33.7186C-1.31143 26.5045 -1.04114 17.0635 3.89664 10.0866C8.37295 3.76847 15.9082 0.112 23.595 0C23.7203 0 23.839 0 23.9642 0C36.9976 0 47.6313 9.71765 47.9873 21.7807C47.9873 21.9849 47.9873 22.1958 47.9873 22.4H48.0005Z" fill="black"/>
<path d="M39.1811 17.9233C37.7702 15.8825 34.124 15.5549 31.6046 16.5258C30.7169 16.8681 29.7179 17.1713 28.6361 17.4265C25.8649 18.0806 22.9359 18.0806 20.1647 17.4265C19.0873 17.173 18.0889 16.8703 17.1967 16.5263C14.6762 15.552 11.0295 15.8819 9.61972 17.9233C8.62465 19.366 8.2561 22.3387 10.1512 24.1673C14.7396 28.6042 21.202 28.8 23.7858 28.8C23.9226 28.8 24.0493 28.8 24.1633 28.7989H24.4007H24.6586C26.9228 28.8079 33.821 28.8368 38.6502 24.1673C40.5458 22.3376 40.1761 19.3655 39.1811 17.9233Z" fill="white"/>
</g>
<defs>
<clipPath id="clip0_7891_26282">
<rect width="48" height="44.8" fill="white"/>
</clipPath>
</defs>
</svg>
