<svg width="100" height="100" viewBox="0 0 100 100" fill="none" xmlns="http://www.w3.org/2000/svg">
<path d="M56.25 33.332H43.75" stroke="#1F1F1F" stroke-width="8.33333" stroke-linecap="round" stroke-linejoin="round"/>
<path d="M62.4997 8.33203L58.333 16.6654H70.833C73.0431 16.6654 75.1628 17.5433 76.7256 19.1061C78.2884 20.6689 79.1663 22.7886 79.1663 24.9987V83.332C79.1663 85.5422 78.2884 87.6618 76.7256 89.2246C75.1628 90.7874 73.0431 91.6654 70.833 91.6654H29.1663C26.9562 91.6654 24.8366 90.7874 23.2738 89.2246C21.711 87.6618 20.833 85.5422 20.833 83.332V24.9987C20.833 22.7886 21.711 20.6689 23.2738 19.1061C24.8366 17.5433 26.9562 16.6654 29.1663 16.6654H41.6663" stroke="#1F1F1F" stroke-width="8.33333" stroke-linecap="round" stroke-linejoin="round"/>
<path d="M70.4131 91.6656C69.4548 86.9583 66.8992 82.7268 63.1789 79.6876C59.4587 76.6484 54.8024 74.9883 49.9986 74.9883C45.1947 74.9883 40.5385 76.6484 36.8182 79.6876C33.0979 82.7268 30.5423 86.9583 29.584 91.6656" stroke="#1F1F1F" stroke-width="8.33333" stroke-linecap="round" stroke-linejoin="round"/>
<path d="M37.5 8.33203L50 33.332" stroke="#1F1F1F" stroke-width="8.33333" stroke-linecap="round" stroke-linejoin="round"/>
<path d="M50 75C56.9036 75 62.5 69.4036 62.5 62.5C62.5 55.5964 56.9036 50 50 50C43.0964 50 37.5 55.5964 37.5 62.5C37.5 69.4036 43.0964 75 50 75Z" stroke="#1F1F1F" stroke-width="8.33333" stroke-linecap="round" stroke-linejoin="round"/>
</svg>
