<svg width="58" height="58" viewBox="0 0 58 58" fill="none" xmlns="http://www.w3.org/2000/svg">
<path d="M51.8427 28.3626L38.1081 23.2513C36.2944 22.5768 34.8673 21.1451 34.1994 19.3291L29.1348 5.57284C29.003 5.21211 28.493 5.21123 28.3558 5.5715L23.2487 19.3106C22.5741 21.1243 21.1424 22.5514 19.3265 23.2193L5.57057 28.2841C5.20984 28.4159 5.20897 28.9258 5.56942 29.0587L19.308 34.1701C21.1217 34.8446 22.5488 36.2763 23.2166 38.0922L28.2772 51.844C28.4132 52.2089 28.9228 52.2096 29.0561 51.8454L34.1674 38.1107C34.8419 36.297 36.2736 34.8699 38.0896 34.2021L51.8415 29.1372C52.2023 29.0054 52.2032 28.4955 51.8427 28.3626ZM28.6993 32.5993C26.553 32.5959 24.8157 30.8527 24.8198 28.7021C24.8232 26.5557 26.5664 24.8185 28.7127 24.8224C30.8589 24.8262 32.5963 26.569 32.5924 28.7153C32.5889 30.8656 30.8457 32.6028 28.6993 32.5993Z" fill="black"/>
<path d="M28.3977 52.4877C28.1678 52.4083 27.9817 52.23 27.892 51.9899L22.8306 38.2356C22.2038 36.5316 20.8677 35.1918 19.1658 34.559L5.42727 29.4477C5.09918 29.3264 4.8875 29.0218 4.88767 28.6712C4.88838 28.3203 5.10136 28.016 5.43066 27.8953L19.186 22.8307C20.8904 22.2041 22.2302 20.868 22.863 19.1661L27.97 5.42737C28.0958 5.09646 28.4035 4.88586 28.7545 4.88748C29.1046 4.89054 29.4063 5.10349 29.526 5.43067L34.5905 19.1861C35.2165 20.8898 36.5526 22.2296 38.2547 22.8629L51.9895 27.9738C52.3181 28.0961 52.5296 28.4011 52.5291 28.7516C52.5285 29.1021 52.3151 29.4062 51.9861 29.5262L38.2345 34.5912C36.5307 35.2175 35.1909 36.5537 34.5581 38.2555L29.4468 51.9902C29.3266 52.3177 29.023 52.5315 28.6735 52.5331C28.5766 52.5333 28.4838 52.5175 28.3969 52.4874L28.3977 52.4877ZM28.7482 5.71645L23.6397 19.4556C22.9228 21.3844 21.4033 22.8982 19.4721 23.6091L5.71629 28.6734L19.4549 33.7822C21.3837 34.4991 22.8972 36.0181 23.6085 37.9494L28.6693 51.7018L33.782 37.9667C34.4989 36.0379 36.0179 34.5244 37.9491 33.8135L51.6981 28.7498L37.9661 23.6399C36.0366 22.9223 34.5232 21.4029 33.813 19.4724L28.7483 5.71606L28.7482 5.71645ZM27.3088 32.78C25.6201 32.1965 24.4046 30.5876 24.4079 28.702C24.412 26.3305 26.3445 24.4044 28.7156 24.4084C29.8639 24.4089 30.9433 24.8591 31.7549 25.673C32.5656 26.4871 33.011 27.5677 33.0092 28.7161C33.0074 29.8666 32.5583 30.9468 31.7446 31.7589C30.9312 32.5703 29.8506 33.0157 28.7017 33.0141C28.2144 33.0136 27.7458 32.9311 27.3092 32.7802L27.3088 32.78ZM29.8456 25.4262C29.4865 25.3021 29.1056 25.2371 28.7148 25.2366C26.8002 25.2335 25.2401 26.7885 25.2365 28.7029C25.234 30.6195 26.7885 32.1811 28.7028 32.1851C29.6304 32.1865 30.5025 31.8268 31.1597 31.1719C31.8167 30.5165 32.1791 29.644 32.1811 28.7149C32.1825 27.7873 31.8232 26.9153 31.1683 26.2581C30.7897 25.8782 30.3386 25.5966 29.846 25.4263L29.8456 25.4262Z" fill="black"/>
</svg>
